STARTFONT 2.1
FONT -Bitstream-Terminal-Bold-R-Narrow--18-140-100-100-C-70-ISO8859-1
SIZE 14 100 100
FONTBOUNDINGBOX 7 19 0 -4

STARTPROPERTIES 25
CHARSET_REGISTRY "ISO8859"
CHARSET_ENCODING "1"
CAP_HEIGHT 11
X_HEIGHT 9
AVERAGE_WIDTH 70
FONTNAME_REGISTRY ""
FAMILY_NAME "Terminal"
FOUNDRY "Bitstream"
WEIGHT_NAME "Bold"
SETWIDTH_NAME "Narrow"
SLANT "R"
ADD_STYLE_NAME ""
PIXEL_SIZE 18
POINT_SIZE 140
RESOLUTION_X 100
RESOLUTION_Y 100
SPACING "C"
CHARSET_COLLECTIONS "ASCII ISO8859-1"
FULL_NAME "Terminal Bold Narrow"
COPYRIGHT "Copyright (c) 1988 Bitstream, Inc., Copyright 1990 Digital Equipment Corp. All rights reserved."
WEIGHT 10
QUAD_WIDTH 7
DEFAULT_CHAR 159
FONT_DESCENT 5
FONT_ASCENT 15
ENDPROPERTIES

CHARS 194

STARTCHAR space
ENCODING 32
SWIDTH 360 0
DWIDTH 7 0
BBX 1 1 0 0
BITMAP
00
ENDCHAR

STARTCHAR exclam
ENCODING 33
SWIDTH 360 0
DWIDTH 7 0
BBX 4 11 2 0
BITMAP
60
60
60
60
60
60
60
00
60
F0
60
ENDCHAR

STARTCHAR quotedbl
ENCODING 34
SWIDTH 360 0
DWIDTH 7 0
BBX 5 5 1 8
BITMAP
D8
D8
D8
D8
D8
ENDCHAR

STARTCHAR numbersign
ENCODING 35
SWIDTH 360 0
DWIDTH 7 0
BBX 6 12 1 -1
BITMAP
48
48
48
FC
FC
48
48
FC
FC
48
48
48
ENDCHAR

STARTCHAR dollar
ENCODING 36
SWIDTH 360 0
DWIDTH 7 0
BBX 6 15 1 -3
BITMAP
30
30
78
FC
CC
C0
F0
7C
0C
CC
FC
F8
30
30
30
ENDCHAR

STARTCHAR percent
ENCODING 37
SWIDTH 360 0
DWIDTH 7 0
BBX 7 11 0 0
BITMAP
70
D8
D8
70
06
3C
E0
1C
36
36
1C
ENDCHAR

STARTCHAR ampersand
ENCODING 38
SWIDTH 360 0
DWIDTH 7 0
BBX 6 11 1 0
BITMAP
38
78
60
60
60
70
F4
DC
D8
FC
6C
ENDCHAR

STARTCHAR quoteright
ENCODING 39
SWIDTH 360 0
DWIDTH 7 0
BBX 4 5 2 8
BITMAP
30
20
60
40
C0
ENDCHAR

STARTCHAR parenleft
ENCODING 40
SWIDTH 360 0
DWIDTH 7 0
BBX 4 14 2 -2
BITMAP
30
30
60
60
C0
C0
C0
C0
C0
C0
60
60
30
30
ENDCHAR

STARTCHAR parenright
ENCODING 41
SWIDTH 360 0
DWIDTH 7 0
BBX 4 14 2 -2
BITMAP
C0
C0
60
60
30
30
30
30
30
30
60
60
C0
C0
ENDCHAR

STARTCHAR asterisk
ENCODING 42
SWIDTH 360 0
DWIDTH 7 0
BBX 5 7 1 2
BITMAP
20
20
A8
F8
70
50
D8
ENDCHAR

STARTCHAR plus
ENCODING 43
SWIDTH 360 0
DWIDTH 7 0
BBX 6 8 1 1
BITMAP
30
30
30
FC
FC
30
30
30
ENDCHAR

STARTCHAR comma
ENCODING 44
SWIDTH 360 0
DWIDTH 7 0
BBX 3 5 2 -2
BITMAP
60
60
C0
C0
80
ENDCHAR

STARTCHAR minus
ENCODING 45
SWIDTH 360 0
DWIDTH 7 0
BBX 5 2 1 4
BITMAP
F8
F8
ENDCHAR

STARTCHAR period
ENCODING 46
SWIDTH 360 0
DWIDTH 7 0
BBX 4 3 2 0
BITMAP
60
F0
60
ENDCHAR

STARTCHAR slash
ENCODING 47
SWIDTH 360 0
DWIDTH 7 0
BBX 5 13 2 -1
BITMAP
18
18
18
30
30
30
60
60
60
60
C0
C0
C0
ENDCHAR

STARTCHAR zero
ENCODING 48
SWIDTH 360 0
DWIDTH 7 0
BBX 6 11 1 0
BITMAP
30
78
78
CC
CC
CC
CC
CC
78
78
30
ENDCHAR

STARTCHAR one
ENCODING 49
SWIDTH 360 0
DWIDTH 7 0
BBX 6 11 1 0
BITMAP
30
70
F0
B0
30
30
30
30
30
FC
FC
ENDCHAR

STARTCHAR two
ENCODING 50
SWIDTH 360 0
DWIDTH 7 0
BBX 6 11 1 0
BITMAP
78
FC
CC
0C
0C
18
18
30
60
FC
FC
ENDCHAR

STARTCHAR three
ENCODING 51
SWIDTH 360 0
DWIDTH 7 0
BBX 6 11 1 0
BITMAP
78
FC
CC
0C
38
3C
0C
0C
CC
FC
78
ENDCHAR

STARTCHAR four
ENCODING 52
SWIDTH 360 0
DWIDTH 7 0
BBX 6 11 1 0
BITMAP
18
38
38
78
58
D8
FC
FC
18
18
18
ENDCHAR

STARTCHAR five
ENCODING 53
SWIDTH 360 0
DWIDTH 7 0
BBX 6 11 1 0
BITMAP
FC
FC
C0
C0
F8
FC
0C
0C
CC
FC
78
ENDCHAR

STARTCHAR six
ENCODING 54
SWIDTH 360 0
DWIDTH 7 0
BBX 6 11 1 0
BITMAP
1C
3C
70
60
F8
FC
CC
CC
CC
FC
78
ENDCHAR

STARTCHAR seven
ENCODING 55
SWIDTH 360 0
DWIDTH 7 0
BBX 6 11 1 0
BITMAP
FC
FC
8C
0C
18
18
18
30
30
30
30
ENDCHAR

STARTCHAR eight
ENCODING 56
SWIDTH 360 0
DWIDTH 7 0
BBX 6 11 1 0
BITMAP
78
FC
CC
CC
78
FC
CC
CC
CC
FC
78
ENDCHAR

STARTCHAR nine
ENCODING 57
SWIDTH 360 0
DWIDTH 7 0
BBX 6 11 1 0
BITMAP
78
FC
CC
CC
CC
FC
7C
18
38
F0
E0
ENDCHAR

STARTCHAR colon
ENCODING 58
SWIDTH 360 0
DWIDTH 7 0
BBX 4 8 2 0
BITMAP
60
F0
60
00
00
60
F0
60
ENDCHAR

STARTCHAR semicolon
ENCODING 59
SWIDTH 360 0
DWIDTH 7 0
BBX 4 10 2 -2
BITMAP
60
F0
60
00
00
60
60
C0
C0
80
ENDCHAR

STARTCHAR less
ENCODING 60
SWIDTH 360 0
DWIDTH 7 0
BBX 6 9 1 1
BITMAP
0C
1C
38
70
E0
70
38
1C
0C
ENDCHAR

STARTCHAR equal
ENCODING 61
SWIDTH 360 0
DWIDTH 7 0
BBX 6 6 1 2
BITMAP
FC
FC
00
00
FC
FC
ENDCHAR

STARTCHAR greater
ENCODING 62
SWIDTH 360 0
DWIDTH 7 0
BBX 6 9 1 1
BITMAP
C0
E0
70
38
1C
38
70
E0
C0
ENDCHAR

STARTCHAR question
ENCODING 63
SWIDTH 360 0
DWIDTH 7 0
BBX 6 11 1 0
BITMAP
78
FC
8C
1C
38
30
30
00
30
78
30
ENDCHAR

STARTCHAR at
ENCODING 64
SWIDTH 360 0
DWIDTH 7 0
BBX 6 14 1 -2
BITMAP
78
FC
C4
C4
DC
DC
D4
D4
DC
DC
C0
C0
FC
78
ENDCHAR

STARTCHAR A
ENCODING 65
SWIDTH 360 0
DWIDTH 7 0
BBX 6 11 1 0
BITMAP
30
78
78
CC
CC
CC
FC
FC
CC
CC
CC
ENDCHAR

STARTCHAR B
ENCODING 66
SWIDTH 360 0
DWIDTH 7 0
BBX 6 11 1 0
BITMAP
F8
FC
CC
CC
FC
F8
CC
CC
CC
FC
F8
ENDCHAR

STARTCHAR C
ENCODING 67
SWIDTH 360 0
DWIDTH 7 0
BBX 6 11 1 0
BITMAP
74
FC
CC
CC
C0
C0
C0
C0
CC
FC
78
ENDCHAR

STARTCHAR D
ENCODING 68
SWIDTH 360 0
DWIDTH 7 0
BBX 6 11 1 0
BITMAP
F8
FC
CC
CC
CC
CC
CC
CC
CC
FC
F8
ENDCHAR

STARTCHAR E
ENCODING 69
SWIDTH 360 0
DWIDTH 7 0
BBX 6 11 1 0
BITMAP
FC
FC
C0
C0
F8
F8
C0
C0
C0
FC
FC
ENDCHAR

STARTCHAR F
ENCODING 70
SWIDTH 360 0
DWIDTH 7 0
BBX 6 11 1 0
BITMAP
FC
FC
C0
C0
F8
F8
C0
C0
C0
C0
C0
ENDCHAR

STARTCHAR G
ENCODING 71
SWIDTH 360 0
DWIDTH 7 0
BBX 6 11 1 0
BITMAP
74
FC
CC
CC
C0
DC
DC
CC
CC
FC
78
ENDCHAR

STARTCHAR H
ENCODING 72
SWIDTH 360 0
DWIDTH 7 0
BBX 6 11 1 0
BITMAP
CC
CC
CC
CC
FC
FC
CC
CC
CC
CC
CC
ENDCHAR

STARTCHAR I
ENCODING 73
SWIDTH 360 0
DWIDTH 7 0
BBX 6 11 1 0
BITMAP
FC
FC
30
30
30
30
30
30
30
FC
FC
ENDCHAR

STARTCHAR J
ENCODING 74
SWIDTH 360 0
DWIDTH 7 0
BBX 6 11 1 0
BITMAP
7C
7C
18
18
18
18
18
D8
D8
F8
70
ENDCHAR

STARTCHAR K
ENCODING 75
SWIDTH 360 0
DWIDTH 7 0
BBX 6 11 1 0
BITMAP
CC
CC
D8
D8
F0
F0
D8
D8
D8
CC
CC
ENDCHAR

STARTCHAR L
ENCODING 76
SWIDTH 360 0
DWIDTH 7 0
BBX 6 11 1 0
BITMAP
F0
F0
60
60
60
60
60
60
64
FC
FC
ENDCHAR

STARTCHAR M
ENCODING 77
SWIDTH 360 0
DWIDTH 7 0
BBX 6 11 1 0
BITMAP
84
CC
CC
FC
FC
FC
CC
CC
CC
CC
CC
ENDCHAR

STARTCHAR N
ENCODING 78
SWIDTH 360 0
DWIDTH 7 0
BBX 6 11 1 0
BITMAP
CC
CC
CC
EC
EC
FC
DC
DC
CC
CC
CC
ENDCHAR

STARTCHAR O
ENCODING 79
SWIDTH 360 0
DWIDTH 7 0
BBX 6 11 1 0
BITMAP
78
FC
CC
CC
CC
CC
CC
CC
CC
FC
78
ENDCHAR

STARTCHAR P
ENCODING 80
SWIDTH 360 0
DWIDTH 7 0
BBX 6 11 1 0
BITMAP
F8
FC
CC
CC
CC
FC
F8
C0
C0
C0
C0
ENDCHAR

STARTCHAR Q
ENCODING 81
SWIDTH 360 0
DWIDTH 7 0
BBX 6 14 1 -3
BITMAP
78
FC
CC
CC
CC
CC
CC
CC
CC
FC
78
20
7C
7C
ENDCHAR

STARTCHAR R
ENCODING 82
SWIDTH 360 0
DWIDTH 7 0
BBX 6 11 1 0
BITMAP
F8
FC
CC
CC
CC
F8
F8
D8
DC
CC
CC
ENDCHAR

STARTCHAR S
ENCODING 83
SWIDTH 360 0
DWIDTH 7 0
BBX 6 11 1 0
BITMAP
7C
FC
CC
C0
E0
78
1C
0C
CC
FC
F8
ENDCHAR

STARTCHAR T
ENCODING 84
SWIDTH 360 0
DWIDTH 7 0
BBX 6 11 1 0
BITMAP
FC
FC
30
30
30
30
30
30
30
30
30
ENDCHAR

STARTCHAR U
ENCODING 85
SWIDTH 360 0
DWIDTH 7 0
BBX 6 11 1 0
BITMAP
CC
CC
CC
CC
CC
CC
CC
CC
CC
FC
78
ENDCHAR

STARTCHAR V
ENCODING 86
SWIDTH 360 0
DWIDTH 7 0
BBX 6 11 1 0
BITMAP
CC
CC
CC
CC
CC
CC
CC
78
78
30
30
ENDCHAR

STARTCHAR W
ENCODING 87
SWIDTH 360 0
DWIDTH 7 0
BBX 6 11 1 0
BITMAP
CC
CC
CC
CC
CC
CC
FC
FC
FC
CC
84
ENDCHAR

STARTCHAR X
ENCODING 88
SWIDTH 360 0
DWIDTH 7 0
BBX 6 11 1 0
BITMAP
CC
CC
CC
CC
78
30
78
78
CC
CC
CC
ENDCHAR

STARTCHAR Y
ENCODING 89
SWIDTH 360 0
DWIDTH 7 0
BBX 6 11 1 0
BITMAP
CC
CC
CC
CC
78
78
30
30
30
30
30
ENDCHAR

STARTCHAR Z
ENCODING 90
SWIDTH 360 0
DWIDTH 7 0
BBX 6 11 1 0
BITMAP
FC
FC
8C
1C
18
38
30
70
64
FC
FC
ENDCHAR

STARTCHAR bracketleft
ENCODING 91
SWIDTH 360 0
DWIDTH 7 0
BBX 3 14 2 -2
BITMAP
E0
E0
C0
C0
C0
C0
C0
C0
C0
C0
C0
C0
E0
E0
ENDCHAR

STARTCHAR backslash
ENCODING 92
SWIDTH 360 0
DWIDTH 7 0
BBX 5 13 1 -1
BITMAP
C0
C0
C0
60
60
60
30
30
30
30
18
18
18
ENDCHAR

STARTCHAR bracketright
ENCODING 93
SWIDTH 360 0
DWIDTH 7 0
BBX 3 14 2 -2
BITMAP
E0
E0
60
60
60
60
60
60
60
60
60
60
E0
E0
ENDCHAR

STARTCHAR asciicircum
ENCODING 94
SWIDTH 360 0
DWIDTH 7 0
BBX 6 4 1 5
BITMAP
30
78
CC
84
ENDCHAR

STARTCHAR underscore
ENCODING 95
SWIDTH 360 0
DWIDTH 7 0
BBX 6 2 1 0
BITMAP
FC
FC
ENDCHAR

STARTCHAR quoteleft
ENCODING 96
SWIDTH 360 0
DWIDTH 7 0
BBX 4 4 2 9
BITMAP
C0
60
60
30
ENDCHAR

STARTCHAR a
ENCODING 97
SWIDTH 360 0
DWIDTH 7 0
BBX 6 9 1 0
BITMAP
78
FC
0C
7C
FC
CC
CC
FC
6C
ENDCHAR

STARTCHAR b
ENCODING 98
SWIDTH 360 0
DWIDTH 7 0
BBX 6 12 1 0
BITMAP
C0
C0
C0
D8
FC
CC
CC
CC
CC
CC
FC
F8
ENDCHAR

STARTCHAR c
ENCODING 99
SWIDTH 360 0
DWIDTH 7 0
BBX 6 9 1 0
BITMAP
74
FC
CC
CC
C0
C0
CC
FC
78
ENDCHAR

STARTCHAR d
ENCODING 100
SWIDTH 360 0
DWIDTH 7 0
BBX 6 12 1 0
BITMAP
0C
0C
0C
6C
FC
CC
CC
CC
CC
CC
FC
7C
ENDCHAR

STARTCHAR e
ENCODING 101
SWIDTH 360 0
DWIDTH 7 0
BBX 6 9 1 0
BITMAP
78
FC
CC
FC
FC
C0
CC
FC
78
ENDCHAR

STARTCHAR f
ENCODING 102
SWIDTH 360 0
DWIDTH 7 0
BBX 6 12 1 0
BITMAP
18
3C
30
FC
FC
30
30
30
30
30
78
78
ENDCHAR

STARTCHAR g
ENCODING 103
SWIDTH 360 0
DWIDTH 7 0
BBX 6 13 1 -4
BITMAP
6C
FC
CC
CC
CC
CC
CC
FC
7C
0C
0C
7C
78
ENDCHAR

STARTCHAR h
ENCODING 104
SWIDTH 360 0
DWIDTH 7 0
BBX 6 12 1 0
BITMAP
C0
C0
C0
D8
FC
EC
CC
CC
CC
CC
CC
CC
ENDCHAR

STARTCHAR i
ENCODING 105
SWIDTH 360 0
DWIDTH 7 0
BBX 6 13 1 0
BITMAP
30
30
30
00
70
70
30
30
30
30
30
FC
FC
ENDCHAR

STARTCHAR j
ENCODING 106
SWIDTH 360 0
DWIDTH 7 0
BBX 4 17 2 -4
BITMAP
30
30
30
00
F0
F0
30
30
30
30
30
30
30
30
30
F0
E0
ENDCHAR

STARTCHAR k
ENCODING 107
SWIDTH 360 0
DWIDTH 7 0
BBX 6 12 1 0
BITMAP
C0
C0
C0
CC
DC
D8
F0
F0
D8
D8
DC
CC
ENDCHAR

STARTCHAR l
ENCODING 108
SWIDTH 360 0
DWIDTH 7 0
BBX 6 12 1 0
BITMAP
F0
F0
30
30
30
30
30
30
30
30
FC
FC
ENDCHAR

STARTCHAR m
ENCODING 109
SWIDTH 360 0
DWIDTH 7 0
BBX 7 9 0 0
BITMAP
AC
FE
D6
D6
D6
D6
D6
D6
D6
ENDCHAR

STARTCHAR n
ENCODING 110
SWIDTH 360 0
DWIDTH 7 0
BBX 6 9 1 0
BITMAP
D8
FC
EC
CC
CC
CC
CC
CC
CC
ENDCHAR

STARTCHAR o
ENCODING 111
SWIDTH 360 0
DWIDTH 7 0
BBX 6 9 1 0
BITMAP
78
FC
CC
CC
CC
CC
CC
FC
78
ENDCHAR

STARTCHAR p
ENCODING 112
SWIDTH 360 0
DWIDTH 7 0
BBX 6 13 1 -4
BITMAP
D8
FC
CC
CC
CC
CC
CC
FC
F8
C0
C0
C0
C0
ENDCHAR

STARTCHAR q
ENCODING 113
SWIDTH 360 0
DWIDTH 7 0
BBX 6 13 1 -4
BITMAP
6C
FC
CC
CC
CC
CC
CC
FC
7C
0C
0C
0C
0C
ENDCHAR

STARTCHAR r
ENCODING 114
SWIDTH 360 0
DWIDTH 7 0
BBX 6 9 1 0
BITMAP
DC
FC
60
60
60
60
60
F8
F8
ENDCHAR

STARTCHAR s
ENCODING 115
SWIDTH 360 0
DWIDTH 7 0
BBX 6 9 1 0
BITMAP
7C
FC
C4
E0
78
1C
8C
FC
F8
ENDCHAR

STARTCHAR t
ENCODING 116
SWIDTH 360 0
DWIDTH 7 0
BBX 6 12 1 0
BITMAP
60
60
60
FC
FC
60
60
60
60
6C
7C
38
ENDCHAR

STARTCHAR u
ENCODING 117
SWIDTH 360 0
DWIDTH 7 0
BBX 6 9 1 0
BITMAP
CC
CC
CC
CC
CC
CC
DC
FC
6C
ENDCHAR

STARTCHAR v
ENCODING 118
SWIDTH 360 0
DWIDTH 7 0
BBX 6 9 1 0
BITMAP
CC
CC
CC
CC
CC
CC
78
78
30
ENDCHAR

STARTCHAR w
ENCODING 119
SWIDTH 360 0
DWIDTH 7 0
BBX 7 9 0 0
BITMAP
C6
C6
D6
D6
D6
D6
7C
6C
6C
ENDCHAR

STARTCHAR x
ENCODING 120
SWIDTH 360 0
DWIDTH 7 0
BBX 6 9 1 0
BITMAP
CC
CC
CC
78
30
78
CC
CC
CC
ENDCHAR

STARTCHAR y
ENCODING 121
SWIDTH 360 0
DWIDTH 7 0
BBX 6 13 1 -4
BITMAP
CC
CC
CC
CC
CC
CC
78
78
30
30
30
78
78
ENDCHAR

STARTCHAR z
ENCODING 122
SWIDTH 360 0
DWIDTH 7 0
BBX 6 9 1 0
BITMAP
FC
FC
18
18
30
30
60
FC
FC
ENDCHAR

STARTCHAR braceleft
ENCODING 123
SWIDTH 360 0
DWIDTH 7 0
BBX 5 14 1 -2
BITMAP
18
18
30
30
30
30
E0
30
30
30
30
30
18
18
ENDCHAR

STARTCHAR bar
ENCODING 124
SWIDTH 360 0
DWIDTH 7 0
BBX 2 16 3 -3
BITMAP
C0
C0
C0
C0
C0
C0
C0
C0
C0
C0
C0
C0
C0
C0
C0
C0
ENDCHAR

STARTCHAR braceright
ENCODING 125
SWIDTH 360 0
DWIDTH 7 0
BBX 5 14 1 -2
BITMAP
C0
C0
60
60
60
60
38
60
60
60
60
60
C0
C0
ENDCHAR

STARTCHAR asciitilde
ENCODING 126
SWIDTH 360 0
DWIDTH 7 0
BBX 6 3 1 6
BITMAP
64
FC
98
ENDCHAR

STARTCHAR OE
ENCODING 128
SWIDTH 360 0
DWIDTH 7 0
BBX 6 11 1 0
BITMAP
7C
FC
D8
D8
DC
DC
D8
D8
D8
FC
7C
ENDCHAR

STARTCHAR oe
ENCODING 129
SWIDTH 360 0
DWIDTH 7 0
BBX 7 9 0 0
BITMAP
6C
FE
DA
DE
DE
D8
DA
FE
6C
ENDCHAR

STARTCHAR Ydieresis
ENCODING 130
SWIDTH 360 0
DWIDTH 7 0
BBX 6 15 1 0
BITMAP
CC
CC
00
00
CC
CC
CC
CC
78
78
30
30
30
78
78
ENDCHAR

STARTCHAR Error
ENCODING 159
SWIDTH 360 0
DWIDTH 7 0
BBX 7 17 0 -3
BITMAP
7C
FE
EE
EE
EE
E0
F0
70
78
38
38
00
00
38
7C
7C
38
ENDCHAR

STARTCHAR exclamdown
ENCODING 161
SWIDTH 360 0
DWIDTH 7 0
BBX 4 12 2 -1
BITMAP
60
F0
60
00
60
60
60
60
60
60
60
60
ENDCHAR

STARTCHAR cent
ENCODING 162
SWIDTH 360 0
DWIDTH 7 0
BBX 6 12 1 -1
BITMAP
30
30
78
FC
CC
C0
C0
CC
FC
78
30
30
ENDCHAR

STARTCHAR sterling
ENCODING 163
SWIDTH 360 0
DWIDTH 7 0
BBX 6 11 1 0
BITMAP
38
7C
6C
60
F8
F8
60
60
60
FC
DC
ENDCHAR

STARTCHAR currency
ENCODING 164
SWIDTH 360 0
DWIDTH 7 0
BBX 6 9 1 1
BITMAP
CC
FC
78
CC
CC
CC
78
FC
CC
ENDCHAR

STARTCHAR yen
ENCODING 165
SWIDTH 360 0
DWIDTH 7 0
BBX 6 11 1 0
BITMAP
CC
CC
CC
CC
78
FC
30
FC
30
78
78
ENDCHAR

STARTCHAR brokenbar
ENCODING 166
SWIDTH 360 0
DWIDTH 7 0
BBX 2 17 3 -4
BITMAP
C0
C0
C0
C0
C0
C0
C0
00
00
00
C0
C0
C0
C0
C0
C0
C0
ENDCHAR

STARTCHAR section
ENCODING 167
SWIDTH 360 0
DWIDTH 7 0
BBX 6 13 1 -2
BITMAP
3C
7C
64
60
F0
D8
D8
6C
6C
38
98
F8
F0
ENDCHAR

STARTCHAR dieresis
ENCODING 168
SWIDTH 360 0
DWIDTH 7 0
BBX 6 2 1 11
BITMAP
CC
CC
ENDCHAR

STARTCHAR copyright
ENCODING 169
SWIDTH 360 0
DWIDTH 7 0
BBX 7 11 0 0
BITMAP
38
7C
C6
BA
BA
A2
BA
BA
C6
7C
38
ENDCHAR

STARTCHAR ordfeminine
ENCODING 170
SWIDTH 360 0
DWIDTH 7 0
BBX 6 10 1 3
BITMAP
78
7C
0C
7C
CC
CC
FC
00
FC
FC
ENDCHAR

STARTCHAR guillemotleft
ENCODING 171
SWIDTH 360 0
DWIDTH 7 0
BBX 6 7 1 0
BITMAP
6C
6C
D8
D8
D8
6C
6C
ENDCHAR

STARTCHAR logicalnot
ENCODING 172
SWIDTH 360 0
DWIDTH 7 0
BBX 6 5 1 3
BITMAP
FC
FC
0C
0C
0C
ENDCHAR

STARTCHAR hyphen
ENCODING 173
SWIDTH 360 0
DWIDTH 7 0
BBX 4 2 2 3
BITMAP
F0
F0
ENDCHAR

STARTCHAR registered
ENCODING 174
SWIDTH 360 0
DWIDTH 7 0
BBX 7 11 0 0
BITMAP
38
7C
C6
BA
AA
B2
AA
AA
C6
7C
38
ENDCHAR

STARTCHAR macron
ENCODING 175
SWIDTH 360 0
DWIDTH 7 0
BBX 4 2 2 11
BITMAP
F0
F0
ENDCHAR

STARTCHAR degree
ENCODING 176
SWIDTH 360 0
DWIDTH 7 0
BBX 5 5 1 7
BITMAP
70
F8
D8
F8
70
ENDCHAR

STARTCHAR plusminus
ENCODING 177
SWIDTH 360 0
DWIDTH 7 0
BBX 6 11 1 0
BITMAP
30
30
30
FC
FC
30
30
30
00
FC
FC
ENDCHAR

STARTCHAR twosuperior
ENCODING 178
SWIDTH 360 0
DWIDTH 7 0
BBX 4 7 2 6
BITMAP
E0
F0
30
60
C0
F0
F0
ENDCHAR

STARTCHAR threesuperior
ENCODING 179
SWIDTH 360 0
DWIDTH 7 0
BBX 4 7 2 6
BITMAP
E0
F0
30
E0
30
F0
E0
ENDCHAR

STARTCHAR acute
ENCODING 180
SWIDTH 360 0
DWIDTH 7 0
BBX 4 3 2 11
BITMAP
30
60
C0
ENDCHAR

STARTCHAR mu
ENCODING 181
SWIDTH 360 0
DWIDTH 7 0
BBX 6 13 1 -4
BITMAP
6C
6C
6C
6C
CC
D8
D8
FC
FC
C0
C0
C0
C0
ENDCHAR

STARTCHAR paragraph
ENCODING 182
SWIDTH 360 0
DWIDTH 7 0
BBX 7 13 0 -2
BITMAP
3E
76
F6
F6
F6
76
36
36
36
36
36
36
36
ENDCHAR

STARTCHAR periodcentered
ENCODING 183
SWIDTH 360 0
DWIDTH 7 0
BBX 4 3 2 3
BITMAP
60
F0
60
ENDCHAR

STARTCHAR cedilla
ENCODING 184
SWIDTH 360 0
DWIDTH 7 0
BBX 4 4 2 -4
BITMAP
60
30
F0
E0
ENDCHAR

STARTCHAR onesuperior
ENCODING 185
SWIDTH 360 0
DWIDTH 7 0
BBX 4 7 2 6
BITMAP
E0
60
60
60
60
60
F0
ENDCHAR

STARTCHAR ordmasculine
ENCODING 186
SWIDTH 360 0
DWIDTH 7 0
BBX 6 10 1 3
BITMAP
78
FC
CC
CC
CC
FC
78
00
FC
FC
ENDCHAR

STARTCHAR guillemotright
ENCODING 187
SWIDTH 360 0
DWIDTH 7 0
BBX 6 7 1 0
BITMAP
D8
D8
6C
6C
6C
D8
D8
ENDCHAR

STARTCHAR onequarter
ENCODING 188
SWIDTH 360 0
DWIDTH 7 0
BBX 7 16 0 -4
BITMAP
E0
60
60
60
60
60
F2
0E
38
E4
0C
1C
2C
3E
0C
0C
ENDCHAR

STARTCHAR onehalf
ENCODING 189
SWIDTH 360 0
DWIDTH 7 0
BBX 7 16 0 -4
BITMAP
E0
60
60
60
60
60
F2
0E
38
EC
1E
06
06
0C
1E
1E
ENDCHAR

STARTCHAR threequarters
ENCODING 190
SWIDTH 360 0
DWIDTH 7 0
BBX 7 16 0 -4
BITMAP
70
78
18
30
18
78
72
0E
38
E4
0C
1C
2C
3E
0C
0C
ENDCHAR

STARTCHAR questiondown
ENCODING 191
SWIDTH 360 0
DWIDTH 7 0
BBX 6 12 1 -1
BITMAP
30
78
30
00
30
30
70
60
C0
C4
FC
78
ENDCHAR

STARTCHAR Agrave
ENCODING 192
SWIDTH 360 0
DWIDTH 7 0
BBX 6 15 1 0
BITMAP
60
30
18
00
30
78
78
CC
CC
CC
FC
FC
CC
CC
CC
ENDCHAR

STARTCHAR Aacute
ENCODING 193
SWIDTH 360 0
DWIDTH 7 0
BBX 6 15 1 0
BITMAP
18
30
60
00
30
78
78
CC
CC
CC
FC
FC
CC
CC
CC
ENDCHAR

STARTCHAR Acircumflex
ENCODING 194
SWIDTH 360 0
DWIDTH 7 0
BBX 6 15 1 0
BITMAP
30
30
48
00
30
78
78
CC
CC
CC
FC
FC
CC
CC
CC
ENDCHAR

STARTCHAR Atilde
ENCODING 195
SWIDTH 360 0
DWIDTH 7 0
BBX 6 15 1 0
BITMAP
64
FC
98
00
30
78
78
CC
CC
CC
FC
FC
CC
CC
CC
ENDCHAR

STARTCHAR Adieresis
ENCODING 196
SWIDTH 360 0
DWIDTH 7 0
BBX 6 15 1 0
BITMAP
CC
CC
00
00
30
78
78
CC
CC
CC
FC
FC
CC
CC
CC
ENDCHAR

STARTCHAR Aring
ENCODING 197
SWIDTH 360 0
DWIDTH 7 0
BBX 6 15 1 0
BITMAP
30
78
48
78
30
78
78
CC
CC
CC
FC
FC
CC
CC
CC
ENDCHAR

STARTCHAR AE
ENCODING 198
SWIDTH 360 0
DWIDTH 7 0
BBX 6 11 1 0
BITMAP
7C
7C
78
58
5C
5C
78
F8
D8
DC
DC
ENDCHAR

STARTCHAR Ccedilla
ENCODING 199
SWIDTH 360 0
DWIDTH 7 0
BBX 6 15 1 -4
BITMAP
74
FC
CC
CC
C0
C0
C0
C0
CC
FC
78
30
18
78
70
ENDCHAR

STARTCHAR Egrave
ENCODING 200
SWIDTH 360 0
DWIDTH 7 0
BBX 6 15 1 0
BITMAP
60
30
18
00
FC
FC
C0
C0
F8
F8
C0
C0
C0
FC
FC
ENDCHAR

STARTCHAR Eacute
ENCODING 201
SWIDTH 360 0
DWIDTH 7 0
BBX 6 15 1 0
BITMAP
18
30
60
00
FC
FC
C0
C0
F8
F8
C0
C0
C0
FC
FC
ENDCHAR

STARTCHAR Ecircumflex
ENCODING 202
SWIDTH 360 0
DWIDTH 7 0
BBX 6 15 1 0
BITMAP
30
30
48
00
FC
FC
C0
C0
F8
F8
C0
C0
C0
FC
FC
ENDCHAR

STARTCHAR Edieresis
ENCODING 203
SWIDTH 360 0
DWIDTH 7 0
BBX 6 15 1 0
BITMAP
CC
CC
00
00
FC
FC
C0
C0
F8
F8
C0
C0
C0
FC
FC
ENDCHAR

STARTCHAR Igrave
ENCODING 204
SWIDTH 360 0
DWIDTH 7 0
BBX 6 15 1 0
BITMAP
60
30
18
00
FC
FC
30
30
30
30
30
30
30
FC
FC
ENDCHAR

STARTCHAR Iacute
ENCODING 205
SWIDTH 360 0
DWIDTH 7 0
BBX 6 15 1 0
BITMAP
18
30
60
00
FC
FC
30
30
30
30
30
30
30
FC
FC
ENDCHAR

STARTCHAR Icircumflex
ENCODING 206
SWIDTH 360 0
DWIDTH 7 0
BBX 6 15 1 0
BITMAP
30
30
48
00
FC
FC
30
30
30
30
30
30
30
FC
FC
ENDCHAR

STARTCHAR Idieresis
ENCODING 207
SWIDTH 360 0
DWIDTH 7 0
BBX 6 15 1 0
BITMAP
CC
CC
00
00
FC
FC
30
30
30
30
30
30
30
FC
FC
ENDCHAR

STARTCHAR Eth
ENCODING 208
SWIDTH 360 0
DWIDTH 7 0
BBX 7 11 0 0
BITMAP
7C
7E
66
66
F6
F6
66
66
66
7E
7C
ENDCHAR

STARTCHAR Ntilde
ENCODING 209
SWIDTH 360 0
DWIDTH 7 0
BBX 6 15 1 0
BITMAP
64
FC
98
00
CC
CC
CC
EC
EC
FC
DC
DC
CC
CC
CC
ENDCHAR

STARTCHAR Ograve
ENCODING 210
SWIDTH 360 0
DWIDTH 7 0
BBX 6 15 1 0
BITMAP
60
30
18
00
78
FC
CC
CC
CC
CC
CC
CC
CC
FC
78
ENDCHAR

STARTCHAR Oacute
ENCODING 211
SWIDTH 360 0
DWIDTH 7 0
BBX 6 15 1 0
BITMAP
18
30
60
00
78
FC
CC
CC
CC
CC
CC
CC
CC
FC
78
ENDCHAR

STARTCHAR Ocircumflex
ENCODING 212
SWIDTH 360 0
DWIDTH 7 0
BBX 6 15 1 0
BITMAP
30
30
48
00
78
FC
CC
CC
CC
CC
CC
CC
CC
FC
78
ENDCHAR

STARTCHAR Otilde
ENCODING 213
SWIDTH 360 0
DWIDTH 7 0
BBX 6 15 1 0
BITMAP
64
FC
98
00
78
FC
CC
CC
CC
CC
CC
CC
CC
FC
78
ENDCHAR

STARTCHAR Odieresis
ENCODING 214
SWIDTH 360 0
DWIDTH 7 0
BBX 6 15 1 0
BITMAP
CC
CC
00
00
78
FC
CC
CC
CC
CC
CC
CC
CC
FC
78
ENDCHAR

STARTCHAR multiply
ENCODING 215
SWIDTH 360 0
DWIDTH 7 0
BBX 6 7 1 2
BITMAP
CC
CC
78
30
78
CC
CC
ENDCHAR

STARTCHAR Oslash
ENCODING 216
SWIDTH 360 0
DWIDTH 7 0
BBX 6 13 1 -1
BITMAP
04
7C
FC
CC
CC
DC
DC
EC
EC
CC
FC
F8
80
ENDCHAR

STARTCHAR Ugrave
ENCODING 217
SWIDTH 360 0
DWIDTH 7 0
BBX 6 15 1 0
BITMAP
60
30
18
00
CC
CC
CC
CC
CC
CC
CC
CC
CC
FC
78
ENDCHAR

STARTCHAR Uacute
ENCODING 218
SWIDTH 360 0
DWIDTH 7 0
BBX 6 15 1 0
BITMAP
18
30
60
00
CC
CC
CC
CC
CC
CC
CC
CC
CC
FC
78
ENDCHAR

STARTCHAR Ucircumflex
ENCODING 219
SWIDTH 360 0
DWIDTH 7 0
BBX 6 15 1 0
BITMAP
30
30
48
00
CC
CC
CC
CC
CC
CC
CC
CC
CC
FC
78
ENDCHAR

STARTCHAR Udieresis
ENCODING 220
SWIDTH 360 0
DWIDTH 7 0
BBX 6 15 1 0
BITMAP
CC
CC
00
00
CC
CC
CC
CC
CC
CC
CC
CC
CC
FC
78
ENDCHAR

STARTCHAR Yacute
ENCODING 221
SWIDTH 360 0
DWIDTH 7 0
BBX 6 15 1 0
BITMAP
18
30
60
00
CC
CC
CC
CC
78
78
30
30
30
78
78
ENDCHAR

STARTCHAR Thorn
ENCODING 222
SWIDTH 360 0
DWIDTH 7 0
BBX 6 11 1 0
BITMAP
C0
C0
F8
FC
CC
CC
CC
FC
F8
C0
C0
ENDCHAR

STARTCHAR germandbls
ENCODING 223
SWIDTH 360 0
DWIDTH 7 0
BBX 6 12 1 0
BITMAP
78
FC
CC
CC
D8
DC
CC
CC
CC
CC
DC
D8
ENDCHAR

STARTCHAR agrave
ENCODING 224
SWIDTH 360 0
DWIDTH 7 0
BBX 6 14 1 0
BITMAP
60
30
18
00
00
78
FC
0C
7C
FC
CC
CC
FC
6C
ENDCHAR

STARTCHAR aacute
ENCODING 225
SWIDTH 360 0
DWIDTH 7 0
BBX 6 14 1 0
BITMAP
18
30
60
00
00
78
FC
0C
7C
FC
CC
CC
FC
6C
ENDCHAR

STARTCHAR acircumflex
ENCODING 226
SWIDTH 360 0
DWIDTH 7 0
BBX 6 14 1 0
BITMAP
30
30
48
00
00
78
FC
0C
7C
FC
CC
CC
FC
6C
ENDCHAR

STARTCHAR atilde
ENCODING 227
SWIDTH 360 0
DWIDTH 7 0
BBX 6 14 1 0
BITMAP
64
FC
98
00
00
78
FC
0C
7C
FC
CC
CC
FC
6C
ENDCHAR

STARTCHAR adieresis
ENCODING 228
SWIDTH 360 0
DWIDTH 7 0
BBX 6 13 1 0
BITMAP
CC
CC
00
00
78
FC
0C
7C
FC
CC
CC
FC
6C
ENDCHAR

STARTCHAR aring
ENCODING 229
SWIDTH 360 0
DWIDTH 7 0
BBX 6 15 1 0
BITMAP
30
78
48
78
30
00
78
FC
0C
7C
FC
CC
CC
FC
6C
ENDCHAR

STARTCHAR ae
ENCODING 230
SWIDTH 360 0
DWIDTH 7 0
BBX 6 9 1 0
BITMAP
D8
FC
34
7C
FC
B0
B0
FC
6C
ENDCHAR

STARTCHAR ccedilla
ENCODING 231
SWIDTH 360 0
DWIDTH 7 0
BBX 6 13 1 -4
BITMAP
74
FC
CC
CC
C0
C0
CC
FC
78
30
18
78
70
ENDCHAR

STARTCHAR egrave
ENCODING 232
SWIDTH 360 0
DWIDTH 7 0
BBX 6 14 1 0
BITMAP
60
30
18
00
00
78
FC
CC
FC
FC
C0
CC
FC
78
ENDCHAR

STARTCHAR eacute
ENCODING 233
SWIDTH 360 0
DWIDTH 7 0
BBX 6 14 1 0
BITMAP
18
30
60
00
00
78
FC
CC
FC
FC
C0
CC
FC
78
ENDCHAR

STARTCHAR ecircumflex
ENCODING 234
SWIDTH 360 0
DWIDTH 7 0
BBX 6 14 1 0
BITMAP
30
30
48
00
00
78
FC
CC
FC
FC
C0
CC
FC
78
ENDCHAR

STARTCHAR edieresis
ENCODING 235
SWIDTH 360 0
DWIDTH 7 0
BBX 6 13 1 0
BITMAP
CC
CC
00
00
78
FC
CC
FC
FC
C0
CC
FC
78
ENDCHAR

STARTCHAR igrave
ENCODING 236
SWIDTH 360 0
DWIDTH 7 0
BBX 6 14 1 0
BITMAP
60
30
18
00
00
70
70
30
30
30
30
30
FC
FC
ENDCHAR

STARTCHAR iacute
ENCODING 237
SWIDTH 360 0
DWIDTH 7 0
BBX 6 14 1 0
BITMAP
18
30
60
00
00
70
70
30
30
30
30
30
FC
FC
ENDCHAR

STARTCHAR icircumflex
ENCODING 238
SWIDTH 360 0
DWIDTH 7 0
BBX 6 14 1 0
BITMAP
30
30
48
00
00
70
70
30
30
30
30
30
FC
FC
ENDCHAR

STARTCHAR idieresis
ENCODING 239
SWIDTH 360 0
DWIDTH 7 0
BBX 6 13 1 0
BITMAP
CC
CC
00
00
70
70
30
30
30
30
30
FC
FC
ENDCHAR

STARTCHAR eth
ENCODING 240
SWIDTH 360 0
DWIDTH 7 0
BBX 6 12 1 0
BITMAP
64
38
78
9C
7C
FC
CC
CC
CC
CC
FC
78
ENDCHAR

STARTCHAR ntilde
ENCODING 241
SWIDTH 360 0
DWIDTH 7 0
BBX 6 14 1 0
BITMAP
64
FC
98
00
00
D8
FC
EC
CC
CC
CC
CC
CC
CC
ENDCHAR

STARTCHAR ograve
ENCODING 242
SWIDTH 360 0
DWIDTH 7 0
BBX 6 14 1 0
BITMAP
60
30
18
00
00
78
FC
CC
CC
CC
CC
CC
FC
78
ENDCHAR

STARTCHAR oacute
ENCODING 243
SWIDTH 360 0
DWIDTH 7 0
BBX 6 14 1 0
BITMAP
18
30
60
00
00
78
FC
CC
CC
CC
CC
CC
FC
78
ENDCHAR

STARTCHAR ocircumflex
ENCODING 244
SWIDTH 360 0
DWIDTH 7 0
BBX 6 14 1 0
BITMAP
30
30
48
00
00
78
FC
CC
CC
CC
CC
CC
FC
78
ENDCHAR

STARTCHAR otilde
ENCODING 245
SWIDTH 360 0
DWIDTH 7 0
BBX 6 14 1 0
BITMAP
64
FC
98
00
00
78
FC
CC
CC
CC
CC
CC
FC
78
ENDCHAR

STARTCHAR odieresis
ENCODING 246
SWIDTH 360 0
DWIDTH 7 0
BBX 6 13 1 0
BITMAP
CC
CC
00
00
78
FC
CC
CC
CC
CC
CC
FC
78
ENDCHAR

STARTCHAR divide
ENCODING 247
SWIDTH 360 0
DWIDTH 7 0
BBX 6 10 1 0
BITMAP
30
30
30
00
FC
FC
00
30
30
30
ENDCHAR

STARTCHAR oslash
ENCODING 248
SWIDTH 360 0
DWIDTH 7 0
BBX 6 11 1 -1
BITMAP
0C
78
FC
DC
DC
DC
EC
EC
FC
78
C0
ENDCHAR

STARTCHAR ugrave
ENCODING 249
SWIDTH 360 0
DWIDTH 7 0
BBX 6 14 1 0
BITMAP
C0
60
30
00
00
CC
CC
CC
CC
CC
CC
DC
FC
6C
ENDCHAR

STARTCHAR uacute
ENCODING 250
SWIDTH 360 0
DWIDTH 7 0
BBX 6 14 1 0
BITMAP
0C
18
30
00
00
CC
CC
CC
CC
CC
CC
DC
FC
6C
ENDCHAR

STARTCHAR ucircumflex
ENCODING 251
SWIDTH 360 0
DWIDTH 7 0
BBX 6 14 1 0
BITMAP
30
30
48
00
00
CC
CC
CC
CC
CC
CC
DC
FC
6C
ENDCHAR

STARTCHAR udieresis
ENCODING 252
SWIDTH 360 0
DWIDTH 7 0
BBX 6 13 1 0
BITMAP
CC
CC
00
00
CC
CC
CC
CC
CC
CC
DC
FC
6C
ENDCHAR

STARTCHAR yacute
ENCODING 253
SWIDTH 360 0
DWIDTH 7 0
BBX 6 18 1 -4
BITMAP
0C
18
30
00
00
CC
CC
CC
CC
CC
CC
78
78
30
30
30
78
78
ENDCHAR

STARTCHAR thorn
ENCODING 254
SWIDTH 360 0
DWIDTH 7 0
BBX 6 16 1 -4
BITMAP
C0
C0
C0
D8
FC
CC
CC
CC
CC
CC
FC
F8
C0
C0
C0
C0
ENDCHAR

STARTCHAR ydieresis
ENCODING 255
SWIDTH 360 0
DWIDTH 7 0
BBX 6 17 1 -4
BITMAP
CC
CC
00
00
CC
CC
CC
CC
CC
CC
78
78
30
30
30
78
78
ENDCHAR
ENDFONT
